<svg width="49" height="48" viewBox="0 0 49 48" fill="none" xmlns="http://www.w3.org/2000/svg">
<rect x="0.5" width="48" height="48" rx="8" fill="#131516"/>
<path d="M34.2725 30.7033C33.9062 31.5418 33.4727 32.3136 32.9704 33.0232C32.2857 33.9906 31.7251 34.6602 31.2931 35.032C30.6233 35.6424 29.9058 35.955 29.1374 35.9728C28.5857 35.9728 27.9205 35.8172 27.1461 35.5017C26.3692 35.1876 25.6552 35.032 25.0024 35.032C24.3177 35.032 23.5834 35.1876 22.7979 35.5017C22.0113 35.8172 21.3776 35.9816 20.893 35.9979C20.1562 36.0291 19.4217 35.7076 18.6886 35.032C18.2207 34.6276 17.6354 33.9343 16.9343 32.9521C16.182 31.9033 15.5636 30.687 15.0791 29.3004C14.5602 27.8026 14.3 26.3523 14.3 24.9482C14.3 23.3398 14.6508 21.9526 15.3532 20.7901C15.9053 19.8564 16.6398 19.1198 17.559 18.5791C18.4783 18.0383 19.4715 17.7628 20.5411 17.7452C21.1264 17.7452 21.8939 17.9246 22.8477 18.2771C23.7988 18.6309 24.4095 18.8103 24.6772 18.8103C24.8774 18.8103 25.5558 18.6005 26.7058 18.1823C27.7934 17.7945 28.7113 17.6339 29.4633 17.6972C31.5009 17.8601 33.0317 18.6561 34.0497 20.0901C32.2274 21.1843 31.326 22.7169 31.3439 24.6829C31.3603 26.2142 31.9209 27.4886 33.0227 28.5004C33.522 28.97 34.0796 29.333 34.7001 29.5907C34.5655 29.9774 34.4235 30.3477 34.2725 30.7033ZM29.5993 12.4801C29.5993 13.6804 29.1568 14.8011 28.2748 15.8384C27.2104 17.0716 25.9229 17.7841 24.5268 17.6717C24.509 17.5277 24.4987 17.3761 24.4987 17.2169C24.4987 16.0646 25.0049 14.8315 25.9038 13.8232C26.3526 13.3127 26.9234 12.8882 27.6155 12.5496C28.3062 12.2161 28.9595 12.0316 29.5739 12C29.5918 12.1605 29.5993 12.3209 29.5993 12.4801V12.4801Z" fill="white"/>
</svg>
