<svg width="49" height="48" viewBox="0 0 49 48" fill="none" xmlns="http://www.w3.org/2000/svg">
<g clip-path="url(#clip0_1_592)">
<path fill-rule="evenodd" clip-rule="evenodd" d="M36.02 24.2728C36.02 23.4218 35.9436 22.6037 35.8018 21.8182H24.5V26.46H30.9582C30.68 27.96 29.8345 29.2309 28.5636 30.0818V33.0928H32.4418C34.7109 31.0037 36.02 27.9273 36.02 24.2728Z" fill="#4285F4"/>
<path fill-rule="evenodd" clip-rule="evenodd" d="M24.5 36C27.74 36 30.4564 34.9255 32.4418 33.0927L28.5636 30.0818C27.4891 30.8018 26.1145 31.2273 24.5 31.2273C21.3745 31.2273 18.7291 29.1164 17.7855 26.28H13.7764V29.3891C15.7509 33.3109 19.8091 36 24.5 36Z" fill="#34A853"/>
<path fill-rule="evenodd" clip-rule="evenodd" d="M17.7855 26.28C17.5455 25.56 17.4091 24.7909 17.4091 24C17.4091 23.2091 17.5455 22.44 17.7855 21.72V18.6109H13.7764C12.9636 20.2309 12.5 22.0637 12.5 24C12.5 25.9364 12.9636 27.7691 13.7764 29.3891L17.7855 26.28Z" fill="#FBBC05"/>
<path fill-rule="evenodd" clip-rule="evenodd" d="M24.5 16.7727C26.2618 16.7727 27.8436 17.3782 29.0873 18.5673L32.5291 15.1255C30.4509 13.1891 27.7345 12 24.5 12C19.8091 12 15.7509 14.6891 13.7764 18.6109L17.7855 21.72C18.7291 18.8836 21.3745 16.7727 24.5 16.7727Z" fill="#EA4335"/>
</g>
<rect x="1" y="0.5" width="47" height="47" rx="7.5" stroke="#518EF8"/>
<defs>
<clipPath id="clip0_1_592">
<rect x="12.5" y="12" width="24" height="24" rx="6" fill="white"/>
</clipPath>
</defs>
</svg>
