<svg width="49" height="48" viewBox="0 0 49 48" fill="none" xmlns="http://www.w3.org/2000/svg">
<rect x="0.5" width="48" height="48" rx="8" fill="#1DA1F2"/>
<path d="M33.5571 19.1807C33.5664 19.3919 33.5664 19.5935 33.5664 19.8047C33.5756 26.208 28.8712 33.6 20.2679 33.6C17.7305 33.6 15.2393 32.8416 13.1001 31.4208C13.4705 31.4688 13.841 31.488 14.2114 31.488C16.3136 31.488 18.3602 30.7584 20.0179 29.4048C18.0176 29.3664 16.258 28.0128 15.6468 26.0352C16.3506 26.1792 17.073 26.1504 17.7583 25.9488C15.582 25.5072 14.0169 23.52 14.0077 21.2064C14.0077 21.1872 14.0077 21.168 14.0077 21.1488C14.6559 21.5232 15.3875 21.7344 16.1284 21.7536C14.0817 20.3328 13.4427 17.5007 14.6837 15.2831C17.0637 18.3167 20.5643 20.1504 24.3241 20.352C23.9445 18.6719 24.4631 16.9055 25.6762 15.7151C27.5561 13.8815 30.5196 13.9775 32.2977 15.9263C33.3441 15.7151 34.3535 15.3119 35.2704 14.7455C34.9185 15.8687 34.1869 16.8191 33.2145 17.4239C34.1406 17.3087 35.0481 17.0495 35.9001 16.6655C35.2704 17.6447 34.4739 18.4895 33.5571 19.1807Z" fill="white"/>
</svg>
