<svg width="8" height="13" viewBox="0 0 8 13" fill="none" xmlns="http://www.w3.org/2000/svg">
<path d="M6.82916 11.8083C6.975 11.6625 7.04791 11.4898 7.04791 11.2903C7.04791 11.0912 6.975 10.9187 6.82916 10.7729L2.55625 6.49998L6.84375 2.21248C6.97986 2.07637 7.04791 1.90623 7.04791 1.70206C7.04791 1.4979 6.975 1.3229 6.82916 1.17706C6.68333 1.03123 6.51066 0.958313 6.31116 0.958313C6.11205 0.958313 5.93958 1.03123 5.79375 1.17706L0.893745 6.09165C0.835412 6.14998 0.793996 6.21317 0.769496 6.28123C0.745385 6.34929 0.733329 6.4222 0.733329 6.49998C0.733329 6.57776 0.745385 6.65067 0.769496 6.71873C0.793996 6.78679 0.835412 6.84998 0.893745 6.90831L5.80833 11.8229C5.94444 11.959 6.11205 12.0271 6.31116 12.0271C6.51066 12.0271 6.68333 11.9541 6.82916 11.8083Z" fill="black"/>
</svg>
