<svg width="189" height="37" viewBox="0 0 189 37" fill="none" xmlns="http://www.w3.org/2000/svg">
<path d="M25.8487 0.796665C24.9267 1.78102 24.9585 3.11467 25.944 4.35306C26.3573 4.92463 26.6116 5.46444 26.5163 5.59145C26.3891 5.68671 23.3054 5.78197 19.5858 5.78197H14.7206C13.5169 5.78197 12.3378 6.12329 11.3201 6.76633C9.53985 7.90946 8.87223 8.6398 7.98208 10.4497C6.26537 14.0379 8.17283 18.9915 11.8606 20.5156C12.7507 20.8967 14.1813 21.0237 17.5194 21.0237C21.9066 21.0237 22.0019 21.0554 22.8285 21.8493C23.4961 22.5161 23.6233 22.8654 23.4643 23.945C23.1782 26.009 22.9239 26.0725 15.8663 26.1042C12.401 26.1042 9.57164 26.009 9.57164 25.9137C9.57164 25.8185 9.92134 25.2787 10.3664 24.7071C11.4155 23.3417 11.3837 22.4526 10.2392 21.3095C8.58611 19.69 7.72776 20.1028 3.43597 24.4531C0.638353 27.3109 0.352234 27.7237 0.352234 28.8033C0.352234 29.9147 0.638353 30.2957 3.78567 33.5028C6.93298 36.6464 7.34626 36.964 8.42716 36.9957C9.38089 37.0275 9.82597 36.837 10.3982 36.1384C11.3837 35.027 11.3519 34.0109 10.3664 32.836C9.92134 32.2962 9.57164 31.8199 9.57164 31.7246C9.57164 31.6294 12.6236 31.5024 16.3431 31.4388C22.606 31.3118 23.1782 31.2483 24.577 30.5815C26.5481 29.6289 27.8515 28.1047 28.4873 26.0407C29.1231 23.8815 29.0913 22.9924 28.2966 20.8967C27.5336 18.8327 25.5307 16.8957 23.6233 16.3242C22.9239 16.1019 20.5078 15.9431 18.2506 15.9431C14.5628 15.9431 14.086 15.8796 13.4501 15.308C13.0687 14.9588 12.6872 14.3237 12.56 13.9109C12.3375 13.0218 13.1322 11.3388 13.8634 11.0531C14.531 10.799 26.7388 10.799 26.7388 11.0531C26.7388 11.1483 26.3891 11.6564 25.944 12.1962C24.8949 13.4346 24.8949 14.8 25.9758 15.7843C26.8978 16.6417 27.6925 16.7687 28.7098 16.2289C29.5364 15.7843 35.1634 10.164 35.6085 9.33837C36.3397 7.97297 35.99 7.36965 32.3976 3.68624C29.1549 0.383869 28.7734 0.0663338 27.6925 0.0663338C26.8978 0.0663338 26.3255 0.288609 25.8487 0.796665Z" fill="#844AFF"/>
<path d="M170.434 15.6256V17.2133H172.501H174.567V15.6256V14.0379H172.501H170.434V15.6256Z" fill="black"/>
<path d="M141.759 15.1176C138.23 16.0702 136.132 18.7057 135.846 22.6114C135.528 27.0251 137.562 30.518 141.028 31.5342C143.158 32.1375 146.369 32.074 148.435 31.3754L150.088 30.8038V28.7716V26.7076L148.594 27.7555C145.733 29.6924 142.426 29.2479 140.869 26.6759C140.042 25.3105 140.01 21.9763 140.805 20.3887C142.172 17.6578 145.192 17.0863 148.276 18.928L150.088 20.0394V18.0071C150.088 16.1337 150.024 16.0067 149.23 15.6574C148.117 15.2128 145.192 14.673 144.08 14.7048C143.634 14.7048 142.585 14.8953 141.759 15.1176Z" fill="black"/>
<path d="M31.5074 15.1811C31.5074 15.4669 35.1952 29.2796 35.6721 30.7721L36.0218 31.8199H38.3107H40.5997L42.0303 26.4218C42.7933 23.4687 43.4927 21.0237 43.588 21.0237C43.6834 21.0237 44.4146 23.4052 45.2094 26.3266L46.6718 31.6612L49.0243 31.7564L51.3769 31.8517L52.871 26.1996C53.7294 23.0877 54.7467 19.309 55.16 17.7531L55.923 14.9905H53.793H51.663L50.4549 20.1346C49.8191 22.9924 49.1515 25.5962 49.0243 25.9455C48.7382 26.6441 48.7382 26.6759 47.244 20.7062C46.7989 18.8645 46.2585 16.8323 46.0995 16.1654L45.7816 14.9588L43.6834 15.0541L41.5852 15.1493L40.1228 20.6109C39.328 23.5958 38.5969 26.136 38.5015 26.2313C38.4061 26.3266 37.7385 23.8815 37.0391 20.7697L35.7992 15.1493L33.6374 15.0541C32.4612 14.9905 31.5074 15.0541 31.5074 15.1811Z" fill="black"/>
<path d="M60.946 15.2763C60.8506 15.4034 59.5789 18.801 58.0848 22.8019C56.6224 26.8029 55.2554 30.4545 55.0646 30.9308L54.7149 31.8199H56.8767H59.0385L59.5154 30.2958L59.9922 28.8034H63.2985H66.6048L67.1452 30.2323L67.6857 31.6612L69.7839 31.7564C70.9283 31.8199 71.8821 31.7564 71.8821 31.6294C71.8821 31.4072 67.2724 18.7692 66.2551 16.1654L65.7782 14.9906H63.4574C62.154 14.9906 61.0413 15.1176 60.946 15.2763ZM63.521 25.4057C62.4719 25.4692 61.55 25.4375 61.4864 25.3422C61.3274 25.2152 62.8534 20.2934 63.2349 19.6266C63.3303 19.4361 63.8707 20.6744 64.4112 22.3256L65.4285 25.3105L63.521 25.4057Z" fill="black"/>
<path d="M72.5179 23.3735V31.8199H74.5844H76.6508V29.1209V26.4218H78.4947C83.4859 26.3901 86.1881 24.1991 86.1881 20.1664C86.1881 18.1977 85.2979 16.737 83.4859 15.8162C82.405 15.2446 81.5148 15.1493 77.382 15.0223L72.5179 14.9271V23.3735ZM81.0062 18.6422C82.405 19.6266 82.1824 22.1669 80.5929 22.8972C80.1478 23.0877 79.0987 23.2465 78.2403 23.2465H76.6508V20.7062V18.1659H78.4947C79.6073 18.1659 80.5929 18.3564 81.0062 18.6422Z" fill="black"/>
<path d="M93.1821 23.3735V31.8199H95.2485H97.3149V29.1209V26.4218H99.1588C104.15 26.3901 106.852 24.1991 106.852 20.1664C106.852 18.1977 105.962 16.737 104.15 15.8162C103.069 15.2446 102.179 15.1493 98.0461 15.0223L93.1821 14.9271V23.3735ZM101.67 18.6422C103.069 19.6266 102.847 22.1669 101.257 22.8972C100.812 23.0877 99.7628 23.2465 98.9045 23.2465H97.3149V20.7062V18.1659H99.1588C100.271 18.1659 101.257 18.3564 101.67 18.6422Z" fill="black"/>
<path d="M108.124 23.4053V31.8199H115.69H123.256L123.733 30.2958L124.21 28.8034H127.516H130.823L131.363 30.2323L131.904 31.6612L134.002 31.7564C135.146 31.8199 136.1 31.7564 136.1 31.6294C136.1 31.4072 131.49 18.7692 130.473 16.1654L129.996 14.9588L127.548 15.0541L125.132 15.1493L123.161 20.5474C122.048 23.5005 120.936 26.5489 120.65 27.2792L120.141 28.6446H116.199H112.257V21.8176V14.9906H110.19H108.124V23.4053ZM127.739 25.4057C126.69 25.4692 125.768 25.4375 125.704 25.3422C125.545 25.2152 127.071 20.2934 127.453 19.6266C127.548 19.4361 128.089 20.6744 128.629 22.3256L129.646 25.3105L127.739 25.4057Z" fill="black"/>
<path d="M151.36 23.4053V31.8199H157.4H163.44V30.2323V28.6446H159.466H155.493V26.4218V24.1991H159.149H162.805V22.6114V21.0237H159.149H155.493V19.5948V18.1659H159.466H163.44V16.5782V14.9906H157.4H151.36V23.4053Z" fill="black"/>
<path d="M180.099 19.0867C177.047 19.8488 175.426 22.1033 175.426 25.5009C175.426 28.1999 176.379 30.0099 178.446 31.1848C180.417 32.2962 183.977 32.2962 186.012 31.1848C188.015 30.0417 189 28.1999 189 25.4691C189 21.5635 186.87 19.2772 182.96 18.9597C181.911 18.8962 180.639 18.9597 180.099 19.0867ZM184.136 22.4843C184.804 23.1829 184.899 23.5957 184.899 25.4691C184.899 28.1682 184.104 29.2796 182.197 29.2796C180.29 29.2796 179.495 28.1682 179.495 25.4691C179.495 22.7701 180.29 21.6587 182.197 21.6587C183.024 21.6587 183.564 21.881 184.136 22.4843Z" fill="black"/>
<path d="M170.434 25.4692V31.8199H172.501H174.567V25.4692V19.1185H172.501H170.434V25.4692Z" fill="black"/>
<path d="M165.03 29.756C164.553 30.3275 164.712 31.1849 165.443 31.6294C165.92 31.9152 166.111 31.8517 166.492 31.3754C167.064 30.5815 167.064 30.391 166.429 29.7877C165.825 29.1526 165.539 29.1526 165.03 29.756Z" fill="black"/>
</svg>
