<svg width="28" height="25" viewBox="0 0 28 25" fill="none" xmlns="http://www.w3.org/2000/svg">
<path d="M14 25L12.0667 23.2667C9.82224 21.2444 7.96669 19.5 6.50002 18.0333C5.03335 16.5667 3.86669 15.2498 3.00002 14.0827C2.13335 12.9164 1.52802 11.8444 1.18402 10.8667C0.839131 9.88888 0.666687 8.88888 0.666687 7.86666C0.666687 5.77777 1.36669 4.03332 2.76669 2.63333C4.16669 1.23333 5.91113 0.533325 8.00002 0.533325C9.15558 0.533325 10.2556 0.77777 11.3 1.26666C12.3445 1.75555 13.2445 2.44444 14 3.33333C14.7556 2.44444 15.6556 1.75555 16.7 1.26666C17.7445 0.77777 18.8445 0.533325 20 0.533325C22.0889 0.533325 23.8334 1.23333 25.2334 2.63333C26.6334 4.03332 27.3334 5.77777 27.3334 7.86666C27.3334 8.88888 27.1614 9.88888 26.8174 10.8667C26.4725 11.8444 25.8667 12.9164 25 14.0827C24.1334 15.2498 22.9667 16.5667 21.5 18.0333C20.0334 19.5 18.1778 21.2444 15.9334 23.2667L14 25ZM14 21.4C16.1334 19.4889 17.8889 17.8498 19.2667 16.4827C20.6445 15.1164 21.7334 13.928 22.5334 12.9173C23.3334 11.9058 23.8889 11.0053 24.2 10.216C24.5111 9.42755 24.6667 8.64444 24.6667 7.86666C24.6667 6.53332 24.2222 5.42221 23.3334 4.53333C22.4445 3.64444 21.3334 3.19999 20 3.19999C18.9556 3.19999 17.9889 3.49421 17.1 4.08266C16.2111 4.67199 15.6 5.42221 15.2667 6.33333H12.7334C12.4 5.42221 11.7889 4.67199 10.9 4.08266C10.0111 3.49421 9.04446 3.19999 8.00002 3.19999C6.66669 3.19999 5.55558 3.64444 4.66669 4.53333C3.7778 5.42221 3.33335 6.53332 3.33335 7.86666C3.33335 8.64444 3.48891 9.42755 3.80002 10.216C4.11113 11.0053 4.66669 11.9058 5.46669 12.9173C6.26669 13.928 7.35558 15.1164 8.73335 16.4827C10.1111 17.8498 11.8667 19.4889 14 21.4Z" fill="#131516"/>
</svg>
