<svg width="24" height="24" viewBox="0 0 24 24" fill="none" xmlns="http://www.w3.org/2000/svg">
<path d="M2.66667 19.8C3.86667 18.6222 5.26133 17.6942 6.85067 17.016C8.43911 16.3387 10.1556 16 12 16C13.8444 16 15.5613 16.3387 17.1507 17.016C18.7391 17.6942 20.1333 18.6222 21.3333 19.8V2.66667H2.66667V19.8ZM12 13.3333C13.2889 13.3333 14.3889 12.8778 15.3 11.9667C16.2111 11.0556 16.6667 9.95556 16.6667 8.66667C16.6667 7.37778 16.2111 6.27778 15.3 5.36667C14.3889 4.45556 13.2889 4 12 4C10.7111 4 9.61111 4.45556 8.7 5.36667C7.78889 6.27778 7.33333 7.37778 7.33333 8.66667C7.33333 9.95556 7.78889 11.0556 8.7 11.9667C9.61111 12.8778 10.7111 13.3333 12 13.3333ZM2.66667 24C1.93333 24 1.30533 23.7391 0.782667 23.2173C0.260889 22.6947 0 22.0667 0 21.3333V2.66667C0 1.93333 0.260889 1.30533 0.782667 0.782667C1.30533 0.260889 1.93333 0 2.66667 0H21.3333C22.0667 0 22.6947 0.260889 23.2173 0.782667C23.7391 1.30533 24 1.93333 24 2.66667V21.3333C24 22.0667 23.7391 22.6947 23.2173 23.2173C22.6947 23.7391 22.0667 24 21.3333 24H2.66667ZM5.33333 21.3333H18.6667V21C17.7333 20.2222 16.7 19.6391 15.5667 19.2507C14.4333 18.8613 13.2444 18.6667 12 18.6667C10.7556 18.6667 9.56667 18.8613 8.43333 19.2507C7.3 19.6391 6.26667 20.2222 5.33333 21V21.3333ZM12 10.6667C11.4444 10.6667 10.9724 10.472 10.584 10.0827C10.1947 9.69422 10 9.22222 10 8.66667C10 8.11111 10.1947 7.63911 10.584 7.25067C10.9724 6.86133 11.4444 6.66667 12 6.66667C12.5556 6.66667 13.0276 6.86133 13.416 7.25067C13.8053 7.63911 14 8.11111 14 8.66667C14 9.22222 13.8053 9.69422 13.416 10.0827C13.0276 10.472 12.5556 10.6667 12 10.6667Z" fill="#131516"/>
</svg>
