<svg width="27" height="26" viewBox="0 0 27 26" fill="none" xmlns="http://www.w3.org/2000/svg">
<path d="M13.5 26C20.6799 26 26.5 20.1799 26.5 13C26.5 5.8201 20.6799 0 13.5 0C6.3201 0 0.5 5.8201 0.5 13C0.5 20.1799 6.3201 26 13.5 26Z" fill="white"/>
<path d="M10.4991 17.2L6.99908 13.7C6.90756 13.6074 6.79856 13.5338 6.6784 13.4836C6.55824 13.4334 6.42931 13.4076 6.29908 13.4076C6.16886 13.4076 6.03993 13.4334 5.91976 13.4836C5.7996 13.5338 5.6906 13.6074 5.59908 13.7C5.50644 13.7915 5.43289 13.9005 5.38269 14.0207C5.33249 14.1409 5.30664 14.2698 5.30664 14.4C5.30664 14.5302 5.33249 14.6592 5.38269 14.7793C5.43289 14.8995 5.50644 15.0085 5.59908 15.1L9.78908 19.29C10.1791 19.68 10.8091 19.68 11.1991 19.29L21.7991 8.70001C21.8917 8.60848 21.9653 8.49948 22.0155 8.37932C22.0657 8.25916 22.0915 8.13023 22.0915 8.00001C22.0915 7.86978 22.0657 7.74085 22.0155 7.62069C21.9653 7.50053 21.8917 7.39153 21.7991 7.30001C21.7076 7.20737 21.5986 7.13382 21.4784 7.08362C21.3582 7.03342 21.2293 7.00757 21.0991 7.00757C20.9689 7.00757 20.8399 7.03342 20.7198 7.08362C20.5996 7.13382 20.4906 7.20737 20.3991 7.30001L10.4991 17.2Z" fill="#131516"/>
</svg>
