<svg width="26" height="26" viewBox="0 0 26 26" fill="none" xmlns="http://www.w3.org/2000/svg">
<path d="M13 26C20.1799 26 26 20.1799 26 13C26 5.8201 20.1799 0 13 0C5.8201 0 0 5.8201 0 13C0 20.1799 5.8201 26 13 26Z" fill="#131516"/>
<path d="M9.99908 17.2L6.49908 13.7C6.40756 13.6074 6.29856 13.5338 6.1784 13.4836C6.05824 13.4334 5.92931 13.4076 5.79908 13.4076C5.66886 13.4076 5.53993 13.4334 5.41976 13.4836C5.2996 13.5338 5.1906 13.6074 5.09908 13.7C5.00644 13.7915 4.93289 13.9005 4.88269 14.0207C4.83249 14.1409 4.80664 14.2698 4.80664 14.4C4.80664 14.5302 4.83249 14.6592 4.88269 14.7793C4.93289 14.8995 5.00644 15.0085 5.09908 15.1L9.28908 19.29C9.67908 19.68 10.3091 19.68 10.6991 19.29L21.2991 8.70001C21.3917 8.60848 21.4653 8.49948 21.5155 8.37932C21.5657 8.25916 21.5915 8.13023 21.5915 8.00001C21.5915 7.86978 21.5657 7.74085 21.5155 7.62069C21.4653 7.50053 21.3917 7.39153 21.2991 7.30001C21.2076 7.20737 21.0986 7.13382 20.9784 7.08362C20.8582 7.03342 20.7293 7.00757 20.5991 7.00757C20.4689 7.00757 20.3399 7.03342 20.2198 7.08362C20.0996 7.13382 19.9906 7.20737 19.8991 7.30001L9.99908 17.2Z" fill="white"/>
</svg>
