<svg width="24" height="24" viewBox="0 0 24 24" fill="none" xmlns="http://www.w3.org/2000/svg">
<path d="M23.4285 11.9869C23.426 9.80491 22.7989 7.66927 21.6214 5.83233C20.4438 3.9954 18.765 2.53395 16.7834 1.62069C14.8018 0.707429 12.6001 0.380539 10.4386 0.678642C8.27709 0.976745 6.2461 1.88738 4.58563 3.30294C2.92517 4.7185 1.70463 6.57981 1.06827 8.66691C0.431898 10.754 0.406296 12.9797 0.994489 15.0809C1.58268 17.182 2.76008 19.0709 4.38755 20.5243C6.01502 21.9777 8.02452 22.9348 10.1786 23.2826V15.2935H7.27846V11.9869H10.1786V9.4854C10.1786 6.62435 11.8905 5.03748 14.5014 5.03748C15.3579 5.04951 16.2124 5.12529 17.0576 5.26418V8.07833H15.6115C15.3659 8.0459 15.1162 8.06894 14.8807 8.14575C14.6451 8.22257 14.4299 8.3512 14.2506 8.52219C14.0714 8.69317 13.9328 8.90217 13.8449 9.13379C13.7571 9.36542 13.7224 9.61379 13.7432 9.86063V11.9869H16.9169L16.3932 15.2935H13.751V23.2826C16.4454 22.8616 18.9009 21.4923 20.6751 19.4213C22.4494 17.3504 23.4258 14.7139 23.4285 11.9869Z" fill="url(#paint0_linear_15_101)"/>
<defs>
<linearGradient id="paint0_linear_15_101" x1="3.88585" y1="3.91183" x2="20.0516" y2="20.0697" gradientUnits="userSpaceOnUse">
<stop stop-color="#4676ED"/>
<stop offset="0.19" stop-color="#436DE4"/>
<stop offset="0.49" stop-color="#3C55CD"/>
<stop offset="0.87" stop-color="#302EA8"/>
<stop offset="1" stop-color="#2B1E99"/>
</linearGradient>
</defs>
</svg>
