<svg width="24" height="24" viewBox="0 0 24 24" fill="none" xmlns="http://www.w3.org/2000/svg">
<path d="M11.9999 23.7144C18.3117 23.7144 23.4285 18.5976 23.4285 12.2858C23.4285 5.97398 18.3117 0.857239 11.9999 0.857239C5.6881 0.857239 0.57135 5.97398 0.57135 12.2858C0.57135 18.5976 5.6881 23.7144 11.9999 23.7144Z" fill="url(#paint0_linear_15_82)"/>
<path d="M11.9999 23.7144C18.3117 23.7144 23.4285 18.5976 23.4285 12.2858C23.4285 5.97398 18.3117 0.857239 11.9999 0.857239C5.6881 0.857239 0.57135 5.97398 0.57135 12.2858C0.57135 18.5976 5.6881 23.7144 11.9999 23.7144Z" fill="black" fill-opacity="0.2"/>
<path d="M15.5489 7.96277C15.3943 7.96277 15.2432 8.00861 15.1146 8.09451C14.9861 8.1804 14.8859 8.30249 14.8267 8.44533C14.7675 8.58817 14.7521 8.74534 14.7822 8.89698C14.8124 9.04862 14.8868 9.1879 14.9962 9.29723C15.1055 9.40655 15.2448 9.481 15.3964 9.51116C15.5481 9.54132 15.7052 9.52584 15.8481 9.46668C15.9909 9.40751 16.113 9.30732 16.1989 9.17877C16.2848 9.05021 16.3306 8.89908 16.3306 8.74448C16.3306 8.53715 16.2483 8.33832 16.1017 8.19172C15.9551 8.04513 15.7562 7.96277 15.5489 7.96277Z" fill="white"/>
<path d="M12.0547 8.98719C11.3993 8.98566 10.7583 9.17888 10.213 9.54232C9.66775 9.90576 9.24274 10.423 8.99198 11.0285C8.74121 11.6339 8.67599 12.3002 8.80461 12.9428C8.93322 13.5854 9.24987 14.1752 9.71434 14.6375C10.1788 15.0998 10.7702 15.4136 11.4134 15.5392C12.0565 15.6647 12.7225 15.5963 13.3268 15.3427C13.931 15.0891 14.4462 14.6616 14.8071 14.1146C15.1679 13.5676 15.3581 12.9257 15.3535 12.2704C15.3473 11.3988 14.9973 10.5649 14.3795 9.95012C13.7617 9.33529 12.9262 8.98923 12.0547 8.98719ZM12.0547 14.4044C11.6353 14.406 11.225 14.283 10.8756 14.0512C10.5262 13.8194 10.2535 13.4891 10.0919 13.1021C9.93038 12.7152 9.88731 12.289 9.96817 11.8775C10.049 11.4661 10.2502 11.0879 10.5461 10.7908C10.8421 10.4938 11.2195 10.2912 11.6307 10.2089C12.0418 10.1265 12.4682 10.168 12.8557 10.3281C13.2433 10.4882 13.5746 10.7597 13.8077 11.1083C14.0408 11.4568 14.1653 11.8667 14.1653 12.286C14.1591 12.8431 13.9346 13.3756 13.5398 13.7689C13.1451 14.1621 12.6118 14.3847 12.0547 14.3888V14.4044Z" fill="white"/>
<path d="M14.6733 18.9773H9.32646C8.25938 18.9752 7.23661 18.5504 6.48207 17.7959C5.72754 17.0413 5.30273 16.0186 5.30066 14.9515V9.59678C5.30273 8.52971 5.72754 7.50693 6.48207 6.7524C7.23661 5.99786 8.25938 5.57305 9.32646 5.57098H14.6733C15.7404 5.57305 16.7632 5.99786 17.5177 6.7524C18.2723 7.50693 18.6971 8.52971 18.6991 9.59678V14.9515C18.6971 16.0186 18.2723 17.0413 17.5177 17.7959C16.7632 18.5504 15.7404 18.9752 14.6733 18.9773ZM9.32646 6.82953C8.59317 6.8316 7.89051 7.12381 7.372 7.64232C6.85348 8.16083 6.56127 8.8635 6.55921 9.59678V14.9515C6.56128 15.684 6.85374 16.3859 7.37248 16.9032C7.89121 17.4204 8.59389 17.7109 9.32646 17.7109H14.6733C15.4059 17.7109 16.1086 17.4204 16.6273 16.9032C17.1461 16.3859 17.4385 15.684 17.4406 14.9515V9.59678C17.4385 8.8635 17.1463 8.16083 16.6278 7.64232C16.1093 7.12381 15.4066 6.8316 14.6733 6.82953H9.32646Z" fill="white"/>
<defs>
<linearGradient id="paint0_linear_15_82" x1="20.0828" y1="4.20295" x2="3.91706" y2="20.3687" gradientUnits="userSpaceOnUse">
<stop stop-color="#FBE18A"/>
<stop offset="0.21" stop-color="#FCBB45"/>
<stop offset="0.38" stop-color="#F75274"/>
<stop offset="0.52" stop-color="#D53692"/>
<stop offset="0.74" stop-color="#8F39CE"/>
<stop offset="1" stop-color="#5B4FE9"/>
</linearGradient>
</defs>
</svg>
