<svg width="24" height="24" viewBox="0 0 24 24" fill="none" xmlns="http://www.w3.org/2000/svg">
<path d="M12 23.7143C18.3118 23.7143 23.4285 18.5976 23.4285 12.2857C23.4285 5.97392 18.3118 0.857178 12 0.857178C5.68813 0.857178 0.571381 5.97392 0.571381 12.2857C0.571381 18.5976 5.68813 23.7143 12 23.7143Z" fill="url(#paint0_linear_15_71)"/>
<path d="M18.3162 8.36931C17.9137 8.54236 17.4907 8.6632 17.0576 8.7289C17.2608 8.7289 17.5579 8.33023 17.6752 8.1817C17.8644 7.95041 18.0077 7.68508 18.0973 7.39999C18.0973 7.39999 18.0973 7.35309 18.0973 7.33746C18.0878 7.33197 18.077 7.32908 18.066 7.32908C18.055 7.32908 18.0442 7.33197 18.0347 7.33746C17.5607 7.59059 17.0563 7.78235 16.5339 7.90811C16.5184 7.91703 16.5009 7.92172 16.4831 7.92172C16.4652 7.92172 16.4477 7.91703 16.4322 7.90811C16.3947 7.86012 16.3528 7.81564 16.3072 7.77521C16.0887 7.59288 15.8435 7.44524 15.5802 7.33746C15.229 7.19271 14.8491 7.13118 14.4702 7.15767C14.1014 7.18158 13.7419 7.28279 13.4149 7.45471C13.08 7.62769 12.7856 7.86971 12.5512 8.16481C12.3167 8.4599 12.1475 8.80136 12.0547 9.16666C11.9843 9.52017 11.9843 9.88408 12.0547 10.2376C12.0547 10.3001 12.0547 10.3079 12 10.3001C10.0215 10.0976 8.19002 9.1637 6.86414 7.68141C6.80942 7.61887 6.77815 7.61887 6.72343 7.68141C6.45732 8.17462 6.35696 8.74037 6.4372 9.29501C6.51744 9.84966 6.77402 10.3638 7.169 10.7613C7.27063 10.8551 7.37224 10.949 7.48168 11.0349C7.13882 11.0079 6.8044 10.915 6.49673 10.7613C6.4342 10.7613 6.40293 10.7613 6.39512 10.8082C6.38767 10.9071 6.38767 11.0064 6.39512 11.1053C6.45441 11.5667 6.63558 12.0041 6.91998 12.3723C7.20438 12.7405 7.58175 13.0263 8.01325 13.2003C8.11738 13.2494 8.2279 13.2836 8.34157 13.3019C8.02102 13.3594 7.69279 13.3594 7.37224 13.3019C7.30189 13.3019 7.27062 13.3019 7.30189 13.3957C7.46843 13.8302 7.74332 14.2148 8.10042 14.5131C8.45752 14.8113 8.88498 15.0133 9.34215 15.0998C9.43596 15.0998 9.52976 15.0998 9.62357 15.0998C9.71737 15.0998 9.62357 15.0998 9.62357 15.0998C9.22494 15.4581 8.74447 15.7131 8.22431 15.8424C7.5461 16.0851 6.82349 16.1784 6.10588 16.116C5.99644 16.116 5.97299 16.116 5.94172 16.116C5.91045 16.116 5.94172 16.1629 5.94172 16.1864C6.08302 16.2824 6.22913 16.3711 6.37948 16.4522C6.82964 16.6898 7.30398 16.8785 7.79437 17.015C9.05824 17.3962 10.4001 17.4387 11.6855 17.1383C12.971 16.8378 14.155 16.205 15.119 15.3031C15.8065 14.5605 16.3401 13.6891 16.689 12.7392C17.0378 11.7892 17.195 10.7796 17.1514 9.76857C17.1514 9.6904 17.2452 9.6435 17.3078 9.60441C17.6869 9.30737 18.0213 8.95721 18.3005 8.56474C18.3474 8.51055 18.3724 8.44092 18.3709 8.36931C18.3709 8.36931 18.3709 8.34586 18.3162 8.36931Z" fill="white"/>
<defs>
<linearGradient id="paint0_linear_15_71" x1="20.0828" y1="4.20289" x2="3.91709" y2="20.3686" gradientUnits="userSpaceOnUse">
<stop stop-color="#33CCFF"/>
<stop offset="1" stop-color="#337FFF"/>
</linearGradient>
</defs>
</svg>
