<svg width="24" height="24" viewBox="0 0 24 24" fill="none" xmlns="http://www.w3.org/2000/svg">
<path d="M11.9999 23.7143C18.3117 23.7143 23.4285 18.5975 23.4285 12.2857C23.4285 5.97386 18.3117 0.857117 11.9999 0.857117C5.6881 0.857117 0.57135 5.97386 0.57135 12.2857C0.57135 18.5975 5.6881 23.7143 11.9999 23.7143Z" fill="url(#paint0_linear_15_93)"/>
<path d="M18.1208 10.6206C18.1208 9.89293 17.8317 9.19503 17.3172 8.68047C16.8026 8.16591 16.1047 7.87683 15.377 7.87683H8.34163C7.61393 7.87683 6.91604 8.16591 6.40148 8.68047C5.88692 9.19503 5.59784 9.89293 5.59784 10.6206V13.8882C5.59784 14.2485 5.66881 14.6053 5.8067 14.9382C5.94459 15.2711 6.14669 15.5735 6.40148 15.8283C6.65626 16.0831 6.95873 16.2852 7.29163 16.4231C7.62452 16.561 7.98131 16.632 8.34163 16.632H15.377C15.7373 16.632 16.0941 16.561 16.427 16.4231C16.7599 16.2852 17.0624 16.0831 17.3172 15.8283C17.5719 15.5735 17.7741 15.2711 17.9119 14.9382C18.0498 14.6053 18.1208 14.2485 18.1208 13.8882V10.6206ZM13.9934 12.5124L10.8665 14.0758C10.7415 14.1383 10.3272 14.0758 10.3272 13.9116V10.7144C10.3272 10.5737 10.7493 10.4799 10.8665 10.5503L13.8839 12.1919C13.9856 12.2466 14.1185 12.4342 13.9934 12.5124Z" fill="white"/>
<defs>
<linearGradient id="paint0_linear_15_93" x1="20.0828" y1="4.20283" x2="3.91706" y2="20.3685" gradientUnits="userSpaceOnUse">
<stop stop-color="#FF0000"/>
<stop offset="1" stop-color="#850000"/>
</linearGradient>
</defs>
</svg>
